<?xml version="1.0" encoding="utf-8"?>
<!-- Generator: Adobe Illustrator 21.0.2, SVG Export Plug-In . SVG Version: 6.00 Build 0)  -->
<svg version="1.1" id="Layer_1" xmlns="http://www.w3.org/2000/svg" xmlns:xlink="http://www.w3.org/1999/xlink" x="0px" y="0px"
	 viewBox="0 0 31.5 25" style="enable-background:new 0 0 31.5 25;" xml:space="preserve">
<style type="text/css">
	.st0{display:none;}
	.st1{fill:#DEDEDE;}
	.st2{fill:#333333;}
</style>
<g id="Layer_2" class="st0">
</g>
<g id="Layer_1_1_">
	<path class="st1" d="M31.50277,0.64946c0,0-11.71875,6.875-15.4114,9.07364c-0.26975,0.20048-0.445,0.1801-0.71292-0.01154
		c-4.72078-2.414-15.37568-9.05209-15.37568-9.05209s3.91031,0.02578,4.33588,0.00768
		C11.94876,0.65314,19.5589,0.655,27.16902,0.66353C27.69101,0.65687,31.50277,0.64946,31.50277,0.64946z"/>
	<path class="st1" d="M27.38384,24.34704c-7.64964,0.00275-19.73143,0.00504-27.38107,0.00213c0,0-0.01245-15.2956,0-17.96533
		h4.09412c0,0,7.55454,5.27185,11.1514,7.87812c0.39018,0.28273,0.6416,0.25841,1.01434-0.0053
		c3.58364-2.5354,11.00944-7.82522,11.12367-7.87282C27.41015,6.50686,27.38384,24.34704,27.38384,24.34704z"/>
	<path class="st2" d="M27.38384,24.34704c-0.00015-5.44624,0.02631-17.84018,0.00246-17.9632c0,0-7.54003,5.33742-11.12367,7.87281
		c-0.37274,0.26371-0.62416,0.28803-1.01434,0.0053c-3.62561-2.59443-11.02843-7.81989-11.1514-7.87811
		c-0.02208,0.13679,0.01415,14.92959,0,17.96533H0.00277V0.65948l2.90642,0.00515c0,0,9.22822,6.72869,12.46926,9.04695
		c0.26792,0.19163,0.44317,0.21202,0.71292,0.01154C18.65478,7.81796,28.56515,0.659,28.56515,0.659l2.93762-0.00953v23.70107
		L27.38384,24.34704z"/>
</g>
</svg>
