<?xml version="1.0" encoding="utf-8"?>
<!-- Generator: Adobe Illustrator 21.0.2, SVG Export Plug-In . SVG Version: 6.00 Build 0)  -->
<svg version="1.1" xmlns="http://www.w3.org/2000/svg" xmlns:xlink="http://www.w3.org/1999/xlink" x="0px" y="0px"
	 viewBox="0 0 31.5 25" style="enable-background:new 0 0 31.5 25;" xml:space="preserve">
<style type="text/css">
	.st0{display:none;}
	.st1{fill:#333333;}
</style>
<g id="Layer_2" class="st0">
</g>
<g id="Layer_1">
	<g>
		<g>
			<path class="st1" d="M15.77356,0.02672c1.68336,0,3.36736-0.02976,5.04995,0.00614
				c3.60635,0.07694,6.70048,2.77175,7.3146,6.32931c0.08096,0.46899,0.12374,0.94047,0.1236,1.41649
				c-0.00085,3.12274-0.00044,6.24547-0.00044,9.36821c0,3.88403-2.5022,6.95919-6.30283,7.7394
				c-0.44034,0.09039-0.8875,0.1283-1.33893,0.12787c-3.22554-0.00306-6.45109-0.00088-9.67663-0.00183
				c-3.75939-0.0011-6.97344-2.73533-7.57719-6.44065c-0.07656-0.46989-0.11605-0.94126-0.11593-1.41697
				c0.00078-3.12274-0.0318-6.2459,0.00946-9.36809c0.04121-3.11788,1.4666-5.44666,4.21155-6.93347
				c1.11412-0.60346,2.32912-0.8486,3.59942-0.8387c1.5677,0.01222,3.13557,0.00292,4.70336,0.00292
				C15.77356,0.02047,15.77356,0.02359,15.77356,0.02672z M15.7913,5.18202c-4.64134-0.00059-7.4139,2.75957-7.39164,7.36406
				c0.02217,4.5879,2.78102,7.35256,7.34097,7.35387c4.64447,0.00134,7.38536-2.72578,7.39179-7.36087
				C23.13882,7.91495,20.4136,5.18261,15.7913,5.18202z M23.71875,5.75c0.71937-0.00221,1.26823-0.52089,1.27161-1.20168
				c0.00333-0.67094-0.55949-1.20736-1.26983-1.21028c-0.7531-0.00309-1.28168,0.50667-1.27308,1.22778
				C22.45588,5.27375,22.96964,5.7523,23.71875,5.75z"/>
			<path class="st1" d="M9.85099,12.50795c0.00213-3.2594,2.66373-5.91645,5.92432-5.9142
				c3.29689,0.00227,5.9404,2.67802,5.93726,6.00966c-0.00303,3.21026-2.702,5.86839-5.9494,5.85938
				C12.47667,18.45368,9.84883,15.80687,9.85099,12.50795z"/>
		</g>
	</g>
</g>
</svg>
