<?xml version="1.0" encoding="utf-8"?>
<!-- Generator: Adobe Illustrator 21.0.2, SVG Export Plug-In . SVG Version: 6.00 Build 0)  -->
<svg version="1.1" xmlns="http://www.w3.org/2000/svg" xmlns:xlink="http://www.w3.org/1999/xlink" x="0px" y="0px"
	 viewBox="0 0 31.5 25" style="enable-background:new 0 0 31.5 25;" xml:space="preserve">
<style type="text/css">
	.st0{display:none;}
	.st1{fill:#333333;}
</style>
<g id="Layer_2" class="st0">
</g>
<g id="Layer_1">
	<g>
		<path class="st1" d="M12.33871,16.64988c0-2.56863,0.00733-5.13731-0.00793-7.70586
			c-0.00228-0.3839,0.08366-0.5267,0.49755-0.51824c1.29688,0.02653,2.59475,0.01876,3.892,0.00374
			c0.32895-0.00381,0.44806,0.10725,0.42082,0.43035c-0.02084,0.24718-0.01316,0.49819,0.00032,0.74649
			c0.01699,0.31294,0.15699,0.39053,0.39171,0.19631c1.17324-0.97079,2.53755-1.39171,4.03713-1.40887
			c2.43338-0.02785,4.53131,0.65555,5.87418,2.8638c0.52283,0.85976,0.76547,1.81216,0.76896,2.81103
			c0.01204,3.44664-0.00008,6.89338,0.01174,10.34003c0.00124,0.36255-0.11065,0.46889-0.46938,0.46436
			c-1.42823-0.01803-2.85696-0.01826-4.28518,0.00018c-0.35243,0.00455-0.44153-0.11082-0.44026-0.44968
			c0.01139-3.02728,0.01769-6.0547-0.00534-9.08185c-0.0035-0.46015-0.09959-0.94474-0.26707-1.3734
			c-0.37971-0.9719-1.40984-1.50807-2.57207-1.41898c-1.77642,0.13618-2.88436,1.32752-2.88929,3.13486
			c-0.00786,2.88314-0.002,5.76632-0.00248,8.64948c-0.00009,0.53073-0.00126,0.53163-0.54006,0.53186
			c-1.29742,0.00055-2.59485,0.00064-3.89227-0.00006c-0.52112-0.00028-0.52271-0.00144-0.52283-0.50963
			C12.3384,21.78715,12.33871,19.21851,12.33871,16.64988z"/>
		<path class="st1" d="M9.20266,16.66161c0.00001,2.56903-0.00824,5.13811,0.00862,7.70702
			c0.00262,0.39988-0.11466,0.51085-0.5106,0.50582c-1.65125-0.02099-3.30301-0.01785-4.95437-0.00173
			c-0.35562,0.00347-0.47222-0.09799-0.4715-0.46273c0.01022-5.17735,0.00979-10.35474,0.00063-15.5321
			C3.27482,8.53324,3.38049,8.42591,3.72466,8.42896c1.66449,0.01475,3.32928,0.01648,4.99372-0.001
			c0.37517-0.00394,0.49418,0.10589,0.49199,0.48729C9.19558,11.4973,9.20265,14.07948,9.20266,16.66161z"/>
		<path class="st1" d="M9.20263,3.07819c0.00099,1.64779-1.3353,2.97345-2.97881,2.9551
			C4.57603,6.0149,3.28116,4.71542,3.28174,3.08075c0.00059-1.65294,1.33412-2.9758,2.97896-2.95512
			C7.91206,0.14639,9.20164,1.44063,9.20263,3.07819z"/>
	</g>
</g>
</svg>
