<?xml version="1.0" encoding="utf-8"?>
<!-- Generator: Adobe Illustrator 21.0.2, SVG Export Plug-In . SVG Version: 6.00 Build 0)  -->
<svg version="1.1" xmlns="http://www.w3.org/2000/svg" xmlns:xlink="http://www.w3.org/1999/xlink" x="0px" y="0px"
	 viewBox="0 0 31.5 25" style="enable-background:new 0 0 31.5 25;" xml:space="preserve">
<style type="text/css">
	.st0{display:none;}
	.st1{fill:#333333;}
</style>
<g id="Layer_2" class="st0">
</g>
<g id="Layer_1">
	<g>
		<g>
			<path class="st1" d="M29.82325,0.60085c-0.04234,1.62836-1.27701,2.40139-2.33662,3.36241
				c1.29922,0.18968,2.34635-0.28741,3.34097-0.94828c0.11345,0.20063,0.00135,0.33351-0.04654,0.46611
				c-0.44535,1.23316-1.40168,1.98893-2.50065,2.57755c-0.37227,0.19939-0.49127,0.39621-0.45299,0.81643
				c0.22535,2.47374-0.07468,4.89288-0.85691,7.24888c-0.97505,2.93675-2.79837,5.23521-5.27627,7.06093
				c-2.68421,1.97773-5.6254,3.31055-8.95661,3.69699c-3.27195,0.37957-6.40991-0.17063-9.43481-1.43364
				c-0.89394-0.37325-1.75941-0.80383-2.67955-1.40039c0.51112-0.04332,0.90721-0.08083,1.30393-0.10977
				c1.23485-0.09009,2.47025-0.17979,3.69185-0.38871c1.5157-0.25922,2.79914-1.00054,3.972-1.95979
				c0.03595-0.0294,0.05679-0.07728,0.12252-0.16982c-2.76897-0.39716-5.02779-1.45821-5.96855-4.3595
				c0.47144,0.16457,0.91534,0.35324,1.39781,0.40073c0.48642,0.04788,0.93931-0.04681,1.36218-0.28726
				c0.0755-0.04293,0.18937-0.08012,0.18649-0.17542c-0.00397-0.13138-0.14602-0.12216-0.23485-0.15253
				c-1.12257-0.38382-2.17418-0.89837-3.04428-1.72101c-1.08404-1.02493-1.65022-2.2831-1.62371-3.7879
				c0.00724-0.41076,0.05029-0.43429,0.4107-0.25697C2.90843,9.42874,3.6416,9.66839,4.447,9.58633
				c0.05907-0.00602,0.11613-0.03173,0.17825-0.04946c-0.03282-0.18827-0.19017-0.2202-0.29566-0.29612
				c-2.41827-1.74044-2.99814-4.288-2.2259-6.92436c0.0904-0.30863,0.24727-0.58741,0.44902-0.8397
				C2.66364,1.33796,2.75771,1.30496,2.87405,1.4822c1.96486,2.99337,4.89386,4.5356,8.23077,5.46434
				c1.26941,0.35331,2.55722,0.6036,3.86867,0.7384c0.35968,0.03697,0.45246-0.05934,0.40867-0.43702
				c-0.32777-2.82683,1.11777-5.33777,3.74669-6.54335c0.91276-0.41858,1.85759-0.69622,2.87794-0.70438
				c1.6147-0.0129,2.92521,0.61901,3.96841,1.82166c0.19604,0.226,0.38181,0.27911,0.65962,0.24559
				c0.9285-0.11202,1.72991-0.50664,2.47787-1.04384C29.3245,0.87149,29.5192,0.6798,29.82325,0.60085z"/>
		</g>
	</g>
</g>
</svg>
