<?xml version="1.0" encoding="utf-8"?>
<!-- Generator: Adobe Illustrator 21.0.2, SVG Export Plug-In . SVG Version: 6.00 Build 0)  -->
<svg version="1.1" id="Layer_1" xmlns="http://www.w3.org/2000/svg" xmlns:xlink="http://www.w3.org/1999/xlink" x="0px" y="0px"
	 viewBox="0 0 31.5 25" style="enable-background:new 0 0 31.5 25;" xml:space="preserve">
<style type="text/css">
	.st0{fill:#4D4D4D;}
	.st1{opacity:0.6;}
</style>
<path id="bottom" class="st0" d="M27,25H4c0,0,0-13.3,0-17.6c0-0.6,0.7-0.9,1.2-0.6c2.9,2.3,9.9,7.8,9.9,7.8
	c0.4,0.3,0.8,0.2,1.2-0.1l10-7.7C26.4,6.7,27,6.6,27,7.1V25z"/>
<path id="top" class="st0" d="M27,0c0,0.6-0.7,1.2-1.3,1.7c-1,0.9-9.1,7.3-9.1,7.3c-0.8,0.7-1.4,1-2.4,0.2c-3.1-2.5-5.9-4.7-9.1-7.3
	C4.6,1.5,4,0.7,4,0.3V0H27z"/>
<path id="shadow" class="st1" d="M27,23.9V25H4V7.4c0-0.6,0.7-0.9,1.1-0.6L27,23.9z"/>
</svg>
