<?xml version="1.0" encoding="utf-8"?>
<!-- Generator: Adobe Illustrator 21.0.2, SVG Export Plug-In . SVG Version: 6.00 Build 0)  -->
<svg version="1.1" id="Layer_1" xmlns="http://www.w3.org/2000/svg" xmlns:xlink="http://www.w3.org/1999/xlink" x="0px" y="0px"
	 viewBox="0 0 31.5 25" style="enable-background:new 0 0 31.5 25;" xml:space="preserve">
<style type="text/css">
	.st0{fill:#555555; }
	.st1{opacity:0.5;fill:#212121;enable-background:new    ;}
</style>
<title>shadowIcons</title>
<path class="st0" d="M15.8000002,18.1000004c-3.0099516-0.0276146-5.4276142-2.4900484-5.3999996-5.5
	s2.4900484-5.4276137,5.5-5.3999996c2.9984426,0.0545259,5.4004965,2.5010614,5.4000006,5.5
	C21.2454758,15.6984434,18.7989388,18.1004963,15.8000002,18.1000004z"/>
<path class="st0" d="M28.671875,7.3960571C28.4494019,3.0939941,24.7020874-0.2224731,20.4000244,0h-9
	C6.5,0,3.2000122,3.0999756,3.0999756,8C3,11.0999756,3,14.2999878,3.0999756,17.5
	c-0.0023804,0.1704102,0.0007935,0.3408813,0.0095215,0.5111084C3.3308716,22.3132324,6.0976562,25.2213135,10.3997803,25
	l10.4931641-0.0164795c4.9000244,0,7.6789551-2.7717285,7.7789307-7.5717773
	C28.7385254,14.2784424,28.671875,7.3960571,28.671875,7.3960571z M15.7241211,21.1916504
	c-0.0043335-0.000061-0.008606,0-0.0129395-0.000061c-4.6641235-0.0661011-8.4546509-3.9053345-8.3994141-8.5994263
	c0.055542-4.6936646,3.9051514-8.4537354,8.5988159-8.3988647c4.6940918,0.0549316,8.454895,3.9047241,8.4000244,8.5988159
	C24.2557373,17.4821167,20.4125977,21.2396851,15.7241211,21.1916504z M23.4296875,5.40625
	c-0.7119141,0-1.2890625-0.5771484-1.2890625-1.2890625s0.5771484-1.2890625,1.2890625-1.2890625
	S24.71875,3.4052734,24.71875,4.1171875S24.1416016,5.40625,23.4296875,5.40625z"/>
<path class="st1" d="M28.6506958,7.2613525c-0.0133057-0.2570801-0.0408325-0.5100708-0.0786743-0.7595825l-4.2131958-3.2841187
	l-0.0050049,0.0067749c0.223938,0.2319336,0.3649292,0.5449219,0.3649292,0.8927612
	c0,0.7119141-0.5771484,1.2890625-1.2890625,1.2890625c-0.2089844,0-0.3986206-0.0612183-0.5731812-0.1494751l-0.0081787,0.0111694
	l5.8229542,5.1908789C28.6625538,8.7462378,28.6506958,7.2613525,28.6506958,7.2613525z"/>
<path class="st1" d="M28.671875,17.4117641c0.0255184-1.5103235,0-2.8647051,0.0089359-4.3529406L24,8.6000004l-3.0915356-2.6933236
	c1.9974174,1.5050879,3.5327129,4.1580291,3.3895741,6.9465594c-0.1307983,4.7478476-3.9877567,8.4474745-8.7362738,8.3438234
	c-2.1558828-0.04706-4.0794115-0.9441185-5.509058-2.2339344L15.8000002,25h5.500001
	C26.171875,25.0118198,28.7218742,21.3711395,28.671875,17.4117641z"/>
</svg>
