<svg id="Layer_1" data-name="Layer 1" xmlns="http://www.w3.org/2000/svg" viewBox="0 0 31.5 25"><defs><style>.cls-1{fill:#555;}.cls-2{fill:#212121;opacity:0.5;}</style></defs><title>shadowIcons</title><path class="cls-1" d="M15.7,25.4H11.3a7.8,7.8,0,0,1-8.2-7.9C3,14.3,3,11.1,3.1,8c.1-4.9,3.4-8,8.3-8h9A7.8,7.8,0,0,1,28.6,8q.1,4.7,0,9.4c-.1,4.8-3.4,8-8.3,8Zm0-4.2a8.5,8.5,0,1,0-8.4-8.6A8.5,8.5,0,0,0,15.8,21.2ZM23.5,5.4c.8-.1,1.3-.5,1.2-1.3a1.1,1.1,0,0,0-1.3-1.2c-.9,0-1.3.5-1.3,1.3S22.8,5.3,23.5,5.4Z"/><path class="cls-1" d="M15.8,18.1a5.4,5.4,0,0,1,.1-10.9,5.5,5.5,0,0,1,5.4,5.5A5.5,5.5,0,0,1,15.8,18.1Z"/><path class="cls-2" d="M28.6,17.4q.1-2.2,0-4.4L24,8.6,20.7,5.5l.2.3a8.4,8.4,0,0,1,3.5,7A8.6,8.6,0,0,1,10.1,19H9.9L15.8,25h7.2A7.7,7.7,0,0,0,28.6,17.4Z"/></svg>