<svg xmlns="http://www.w3.org/2000/svg" viewBox="0 0 31.5 25"><defs><style>.cls-1{fill:#555;}.cls-2{fill:#212121;opacity:0.5;}.cls-3{fill:#fff;}</style></defs><title>shadowIcons</title><g id="Layer_2" data-name="Layer 2"><path class="cls-1" d="M8.8,10.4l3-7.1L30.1,20.9V4.1A3.9,3.9,0,0,0,26.4,0H5.2A3.9,3.9,0,0,0,1.4,4.1V20.9A3.9,3.9,0,0,0,5.2,25H18.8l-7.7-8.7Z"/><path class="cls-1" d="M30.1,20.9,12.4,3.6,8.8,10.4l2.2,6L18.8,25h7.6A3.9,3.9,0,0,0,30.1,20.9Z"/><path class="cls-2" d="M30.1,20.9,11.9,3.2l-3,7.1,2.2,6L18.8,25h7.6A3.9,3.9,0,0,0,30.1,20.9Z"/><path class="cls-3" d="M5.7,3.6l.5-.5h5.6c.3.1.6.3.5.5a11.5,11.5,0,0,0,.2,2.2c.2.7.8,2.1.7,2.4l-3,3a23.4,23.4,0,0,0,3.2,4.2,28.8,28.8,0,0,0,3.6,2.4s2.9-3,3.2-2.9a12.5,12.5,0,0,0,2.3.7c.9.1,2.6,0,2.7.3a42.1,42.1,0,0,1,.3,5.7.9.9,0,0,1-.7.5c-.4,0-8.7.3-14-5.7A20.7,20.7,0,0,1,5.7,3.6Z"/></g></svg>
