<?xml version="1.0" encoding="utf-8"?>
<!-- Generator: Adobe Illustrator 21.0.2, SVG Export Plug-In . SVG Version: 6.00 Build 0)  -->
<svg version="1.1" id="Layer_1" xmlns="http://www.w3.org/2000/svg" xmlns:xlink="http://www.w3.org/1999/xlink" x="0px" y="0px"
	 viewBox="0 0 31.5 25" style="enable-background:new 0 0 31.5 25;" xml:space="preserve">
<style type="text/css">
	.st0{fill:#4D4D4D; fill:{{ color }};}
	.st1{opacity:0.5;fill:#212121;enable-background:new    ;}
</style>
<path id="bottom" class="st0" d="M26.8,25.1H4.2v-9.6c0-3,0.1-6.1,0.1-9.3C5.5,7.1,6.6,8.1,7.7,9l7.2,5.7c0.4,0.3,0.7,0.2,1.1-0.1
	l10-7.7c0.2-0.1,0.5-0.2,0.8-0.1C26.8,12.9,26.8,18.9,26.8,25.1z"/>
<path id="top" class="st0" d="M26.9,0.2h0.4c-1.5,1.5-3.2,2.9-4.9,4.1L16.6,9c-0.8,0.7-1.4,1-2.4,0.2c-3-2.5-6.4-4.9-9.5-7.3
	C4.2,1.5,3.8,1,3.5,0.4L4,0.3L26.9,0.2z"/>
<polygon id="shadow" class="st1" points="4.3,6.4 26.8,23.9 26.8,23.9 26.8,25.1 4.4,25.1 4.4,6.5 "/>
</svg>
